<?xml version="1.0" encoding="UTF-8"?>
<svg width="22px" height="20px" viewBox="0 0 22 20" version="1.1" xmlns="http://www.w3.org/2000/svg" xmlns:xlink="http://www.w3.org/1999/xlink">
    <!-- Generator: sketchtool 49.2 (51160) - http://www.bohemiancoding.com/sketch -->
    <title>5820DA2A-F760-4809-975D-833734C2674E</title>
    <desc>Created with sketchtool.</desc>
    <defs></defs>
    <g id="Page-1" stroke="none" stroke-width="1" fill="none" fill-rule="evenodd">
        <g id="Jenna-web-interface-user-edit" transform="translate(-365.000000, -2159.000000)" fill="#3778F0" fill-rule="nonzero">
            <g id="text-input" transform="translate(348.000000, 2143.000000)">
                <g id="menu" transform="translate(17.000000, 16.000000)">
                    <path d="M22,6 L0,6 C0,6 4.46864767e-14,6.4477 4.46864767e-14,7 C4.46864767e-14,7.5523 0,8 0,8 L22,8 C22,7 22,7.5523 22,7 C22,6.4477 22,7 22,6 Z" id="Shape"></path>
                    <path d="M22,0 L0,0 C0,0 4.4766274e-14,0.4477 4.4766274e-14,1 C4.4766274e-14,1.5523 0,2 0,2 L22,2 C22,1 22,1.5523 22,1 C22,0.4477 22,0 22,0 Z" id="Shape"></path>
                    <path d="M22,18 L0,18 C0,18 4.46864767e-14,18.4477 4.46864767e-14,19 C4.46864767e-14,19.5523 0,20 0,20 L22,20 C22,19 22,19.5523 22,19 C22,18.4477 22,18 22,18 Z" id="Shape"></path>
                    <path d="M22,12 L0,12 C0,12 4.46864767e-14,12.4477 4.46864767e-14,13 C4.46864767e-14,13.5523 0,13 0,14 L22,14 C22,14 22,13.5523 22,13 C22,12.4477 22,12 22,12 Z" id="Shape"></path>
                </g>
            </g>
        </g>
    </g>
</svg>