<?xml version="1.0" encoding="UTF-8"?>
<svg width="32px" height="32px" viewBox="0 0 32 32" version="1.1" xmlns="http://www.w3.org/2000/svg" xmlns:xlink="http://www.w3.org/1999/xlink">
    <!-- Generator: Sketch 49.2 (51160) - http://www.bohemiancoding.com/sketch -->
    <title>user-3</title>
    <desc>Created with Sketch.</desc>
    <defs></defs>
    <g id="Page-1" stroke="none" stroke-width="1" fill="none" fill-rule="evenodd">
        <g id="Jenna-web-interface-user-empty" transform="translate(-116.000000, -82.000000)" fill="#3778F0" fill-rule="nonzero">
            <g id="Group-5" transform="translate(74.000000, 37.000000)">
                <g id="user-3" transform="translate(42.000000, 45.000000)">
                    <path d="M31.918875,27.420125 C31.7781875,26.7443125 31.116375,26.3105 30.4403125,26.4511875 C29.7644375,26.591875 29.330625,27.253875 29.471375,27.9296875 C29.5524375,28.319 29.455875,28.718 29.206625,29.024625 C29.06225,29.2021875 28.533625,30 28,30 L4,30 C3.466375,30 2.93775,29.202125 2.793375,29.024625 C2.5440625,28.7180625 2.4475625,28.319 2.528625,27.9296875 C3.825875,21.69875 9.3218125,17.147125 15.668625,16.993625 C15.7785625,16.997875 15.889,17 16,17 C16.111375,17 16.22225,16.9978125 16.332625,16.9935625 C20.803375,17.1008125 24.935625,19.36525 27.4380625,23.0973125 C27.8225,23.67075 28.5989375,23.823875 29.1724375,23.4394375 C29.7458125,23.055 29.899,22.2785 29.5145,21.705125 C27.4634375,18.646125 24.485125,16.42175 21.08925,15.3040625 C23.158625,13.75225 24.5,11.2798125 24.5,8.5 C24.5,3.813125 20.6869375,0 16,0 C11.3130625,0 7.5,3.813125 7.5,8.5 C7.5,11.2815 8.843,13.75525 10.9145625,15.3069375 C9.0165625,15.9318125 7.235625,16.904125 5.676875,18.18625 C2.818625,20.5373125 0.8313125,23.816625 0.081125,27.420125 C-0.154,28.5493125 0.1276875,29.7090625 0.8538125,30.6019375 C1.576375,31.4904375 1.8545,32 3,32 L29,32 C30.1455625,32 30.423625,31.4904375 31.146125,30.6019375 C31.872375,29.7090625 32.154,28.5493125 31.918875,27.420125 Z M10,8.5 C10,5.1915625 12.6915625,2.5 16,2.5 C19.3084375,2.5 22,5.1915625 22,8.5 C22,11.7065625 20.167875,14.8413125 17,15 C16.8989375,14.998125 16.1013785,15 16.0000035,15 C15.8991285,15 15.10075,14.998125 15,15 C11.8315625,14.8419375 10,11.707 10,8.5 Z" id="Shape"></path>
                </g>
            </g>
        </g>
    </g>
</svg>